<svg width="64" height="64" viewBox="0 0 64 64" fill="none" xmlns="http://www.w3.org/2000/svg">
  <defs>
    <clipPath id="leftClip">
      <rect x="0" y="0" width="32" height="64" />
    </clipPath>
    <clipPath id="rightClip">
      <rect x="32" y="0" width="32" height="64" />
    </clipPath>
  </defs>

  <ellipse cx="32" cy="36" rx="22" ry="20" fill="#1F2937" />

  <g clip-path="url(#leftClip)">
    <ellipse cx="32" cy="36" rx="24" ry="22" fill="#EF4444" />
    <circle cx="22" cy="28" r="4" fill="#1F2937" />
    <circle cx="18" cy="42" r="3.5" fill="#1F2937" />
    <circle cx="26" cy="50" r="3" fill="#1F2937" />
  </g>
  <line x1="32" y1="14" x2="32" y2="58" stroke="#1F2937" stroke-width="1" stroke-linecap="round" />

  <g clip-path="url(#rightClip)">
    <ellipse cx="32" cy="36" rx="24" ry="22" fill="#EF4444" />
    <circle cx="42" cy="28" r="4" fill="#1F2937" />
    <circle cx="46" cy="42" r="3.5" fill="#1F2937" />
    <circle cx="38" cy="50" r="3" fill="#1F2937" />
  </g>
  <line x1="32" y1="14" x2="32" y2="58" stroke="#1F2937" stroke-width="1" stroke-linecap="round" />

  <circle cx="32" cy="14" r="10" fill="#1F2937" />

  <circle cx="28" cy="12" r="2.5" fill="white" />
  <circle cx="36" cy="12" r="2.5" fill="white" />
  <circle cx="28.5" cy="12.5" r="1" fill="#1F2937" />
  <circle cx="36.5" cy="12.5" r="1" fill="#1F2937" />

  <path d="M26 8C24 4 22 2 20 2" stroke="#1F2937" stroke-width="2" stroke-linecap="round" />
  <path d="M38 8C40 4 42 2 44 2" stroke="#1F2937" stroke-width="2" stroke-linecap="round" />
  <circle cx="20" cy="2" r="2" fill="#1F2937" />
  <circle cx="44" cy="2" r="2" fill="#1F2937" />
</svg>
